Patient4_TMGait_0pt6_02_right_01_GRF.mot
version=1
nRows=52
nColumns=19
inDegrees=no
endheader
time	F1x	F1y	F1z	M1x	M1y	M1z	F2x	F2y	F2z	M2x	M2y	M2z	EC1x	EC1y	EC1z	EC2x	EC2y	EC2z
0.54	-1.4507	741.1971	70.6642	-269.0296	-65.1669	682.6218	2.8012	9.1475	-3.4517	3.6694	3.1953	10.5185	-0.0592	0.0182	-0.0073	-0.0462	0.0165	0.9585
0.55214	-0.69596	736.5904	70.0509	-266.611	-63.3335	675.6863	1.7968	7.1551	-2.4412	2.8647	2.3663	8.1155	-0.0592	0.0182	-0.0073	-0.0462	0.0165	0.9585
0.56429	0.76034	732.0127	69.2714	-264.2523	-61.1565	668.182	0.92588	5.5056	-1.5687	2.1897	1.6471	6.1411	-0.0592	0.0182	-0.0073	-0.0462	0.0165	0.9585
0.57643	2.8475	728.1024	68.4014	-262.2311	-58.773	660.7978	0.23602	4.2939	-0.89456	1.6873	1.0897	4.6988	-0.0592	0.0182	-0.0073	-0.0462	0.0165	0.9585
0.58857	5.4317	725.3862	67.4764	-260.7593	-56.2755	654.1291	-0.26217	3.5028	-0.4174	1.3542	0.68956	3.7592	-0.0592	0.0182	-0.0073	-0.0462	0.0165	0.9585
0.60071	8.3667	724.1669	66.5678	-259.9463	-53.7745	648.5545	-0.60809	3.0681	-0.11207	1.165	0.43205	3.2506	-0.0592	0.0182	-0.0073	-0.0462	0.0165	0.9585
0.61286	11.5344	724.5034	65.7042	-259.8003	-51.3212	644.2105	-0.83164	2.875	0.058101	1.0751	0.29088	3.0348	-0.0592	0.0182	-0.0073	-0.0462	0.0165	0.9585
0.625	14.8438	726.2311	64.9309	-260.2391	-48.9665	641.001	-0.98871	2.8044	0.12757	1.0359	0.24609	2.9726	-0.0592	0.0182	-0.0073	-0.0462	0.0165	0.9585
0.63714	18.2241	729.0475	64.2525	-261.1283	-46.7186	638.6994	-1.101	2.7174	0.12324	0.99194	0.27593	2.899	-0.0592	0.0182	-0.0073	-0.0462	0.0165	0.9585
0.64929	21.6262	732.5785	63.697	-262.3075	-44.6024	637.0059	-1.2067	2.4737	0.074112	0.88707	0.35818	2.6681	-0.0592	0.0182	-0.0073	-0.0462	0.0165	0.9585
0.66143	25.0205	736.4665	63.2791	-263.6227	-42.6277	635.6255	-1.3089	1.9221	-0.007824	0.66172	0.47708	2.1087	-0.0592	0.0182	-0.0073	-0.0462	0.0165	0.9585
0.67357	28.4003	740.4067	63.03	-264.939	-40.8142	634.3109	-1.4043	0.9266	-0.10233	0.26173	0.60593	1.07	-0.0592	0.0182	-0.0073	-0.0462	0.0165	0.9585
0.68571	31.7692	744.1648	62.9723	-266.1497	-39.1756	632.888	-1.4606	-0.63214	-0.19704	-0.35651	0.71568	-0.58343	-0.0592	0.0182	-0.0073	-0.0462	0.0165	0.9585
0.69786	35.1347	747.5555	63.1332	-267.1668	-37.7276	631.2303	-1.4185	-2.7942	-0.2742	-1.2058	0.76532	-2.898	-0.0592	0.0182	-0.0073	-0.0462	0.0165	0.9585
0.71	38.5102	750.4068	63.5209	-267.9087	-36.4656	629.2361	-1.1926	-5.4782	-0.31703	-2.2512	0.70502	-5.7904	-0.0592	0.0182	-0.0073	-0.0462	0.0165	0.9585
0.72214	41.8838	752.5124	64.1299	-268.283	-35.386	626.7782	-0.67202	-8.392	-0.27915	-3.3751	0.44611	-8.9496	-0.0592	0.0182	-0.0073	-0.0462	0.0165	0.9585
0.73429	45.2096	753.5609	64.9315	-268.1622	-34.4894	623.6487	0.26462	-10.9249	-0.1123	-4.3384	-0.10893	-11.7163	-0.0592	0.0182	-0.0073	-0.0462	0.0165	0.9585
0.74643	48.3718	753.154	65.8784	-267.3898	-33.7856	619.597	1.7392	-12.0653	0.25785	-4.7423	-1.0822	-13.0077	-0.0592	0.0182	-0.0073	-0.0462	0.0165	0.9585
0.75857	51.2363	750.9062	66.8948	-265.8243	-33.2706	614.3853	3.8264	-10.3071	0.88988	-3.994	-2.5644	-11.1868	-0.0592	0.0182	-0.0073	-0.0462	0.0165	0.9585
0.77071	53.6318	746.5354	67.8876	-263.3757	-32.9388	607.8755	6.5234	-3.6191	1.8358	-1.293	-4.6074	-4.0517	-0.0592	0.0182	-0.0073	-0.0462	0.0165	0.9585
0.78286	55.4268	739.8969	68.7216	-260.0192	-32.7386	600.0153	9.6392	10.4856	3.0979	4.3349	-7.1331	11.0996	-0.0592	0.0182	-0.0073	-0.0462	0.0165	0.9585
0.795	56.528	730.8548	69.2199	-255.7483	-32.5681	590.7412	12.7352	34.6721	4.6165	13.9298	-9.8898	37.1529	-0.0592	0.0182	-0.0073	-0.0462	0.0165	0.9585
0.80714	56.9273	719.0884	69.1462	-250.5079	-32.2493	579.7878	14.9772	71.2658	6.2076	28.3866	-12.3398	76.6398	-0.0592	0.0182	-0.0073	-0.0462	0.0165	0.9585
0.81929	56.6727	703.9407	68.2317	-244.1364	-31.5614	566.5903	15.0665	121.3297	7.5208	48.0961	-13.5874	130.7274	-0.0592	0.0182	-0.0073	-0.0462	0.0165	0.9585
0.83143	55.8613	684.3508	66.1854	-236.3402	-30.249	550.2241	11.3316	183.5568	8.0263	72.505	-12.4224	198.0376	-0.0592	0.0182	-0.0073	-0.0462	0.0165	0.9585
0.84357	54.573	658.9404	62.7819	-226.7143	-28.1078	529.491	2.6764	253.261	7.1404	99.7282	-7.8093	273.4977	-0.0592	0.0182	-0.0073	-0.0462	0.0165	0.9585
0.85571	52.8432	626.2798	57.9328	-214.8252	-25.0535	503.136	-9.8114	322.7014	4.0855	126.6985	0.57943	348.6301	-0.0592	0.0182	-0.0073	-0.0462	0.0165	0.9585
0.86786	50.5915	585.2825	51.784	-200.3239	-21.2243	470.2023	-23.1817	384.7541	-1.2123	150.6211	11.6259	415.4067	-0.0592	0.0182	-0.0073	-0.0462	0.0165	0.9585
0.88	47.5999	535.5496	44.7216	-183.0538	-16.9845	430.3369	-35.2251	436.1057	-8.168	170.224	23.8011	469.9148	-0.0592	0.0182	-0.0073	-0.0462	0.0165	0.9585
0.89214	43.6663	477.6769	37.3283	-163.1636	-12.8388	384.0154	-44.7381	477.6708	-15.9292	185.8913	35.7275	512.9507	-0.0592	0.0182	-0.0073	-0.0462	0.0165	0.9585
0.90429	38.6556	413.3766	30.1475	-141.175	-9.2269	332.6077	-51.2973	512.319	-23.6182	198.7768	46.3213	547.6188	-0.0592	0.0182	-0.0073	-0.0462	0.0165	0.9585
0.91643	32.5554	345.3971	23.6117	-117.9708	-6.4718	278.2813	-55.1059	543.0813	-30.7006	210.0844	55.1018	577.3086	-0.0592	0.0182	-0.0073	-0.0462	0.0165	0.9585
0.92857	25.5205	277.2348	17.9552	-94.7084	-4.6906	223.814	-56.5994	572.254	-36.8691	220.7118	61.9433	604.5798	-0.0592	0.0182	-0.0073	-0.0462	0.0165	0.9585
0.94071	17.9973	212.6019	13.272	-72.6438	-3.8066	172.1426	-56.4363	601.241	-42.1696	231.1834	67.1556	631.0836	-0.0592	0.0182	-0.0073	-0.0462	0.0165	0.9585
0.95286	10.6783	154.8737	9.5248	-52.9294	-3.55	125.9458	-55.2054	630.5539	-46.7131	241.6748	71.1092	657.5088	-0.0592	0.0182	-0.0073	-0.0462	0.0165	0.9585
0.965	4.3731	106.2538	6.634	-36.3266	-3.5824	86.9351	-53.4668	659.9009	-50.7541	252.0413	74.2823	683.7486	-0.0592	0.0182	-0.0073	-0.0462	0.0165	0.9585
0.97714	-0.39165	67.5927	4.4481	-23.1304	-3.6023	55.7988	-51.5338	688.2715	-54.3865	261.8929	76.9073	708.8528	-0.0592	0.0182	-0.0073	-0.0462	0.0165	0.9585
0.98929	-3.4266	38.6078	2.8264	-13.2431	-3.4385	32.3309	-49.6411	714.2802	-57.6873	270.7137	79.1491	731.4956	-0.0592	0.0182	-0.0073	-0.0462	0.0165	0.9585
1.0014	-4.8395	18.2616	1.6395	-6.3066	-3.0307	15.7614	-47.7742	736.4388	-60.5231	277.9841	80.8847	750.1654	-0.0592	0.0182	-0.0073	-0.0462	0.0165	0.9585
1.0136	-4.9344	5.1383	0.78546	-1.834	-2.4083	4.9913	-45.8877	753.5509	-62.7212	283.3077	81.9265	763.6783	-0.0592	0.0182	-0.0073	-0.0462	0.0165	0.9585
1.0257	-4.261	-2.3031	0.20908	0.70417	-1.7213	-1.184	-43.7869	764.8482	-64.0396	286.4646	81.9779	771.237	-0.0592	0.0182	-0.0073	-0.0462	0.0165	0.9585
1.0379	-3.2683	-5.6584	-0.13805	1.8508	-1.0937	-4.0208	-41.3189	770.1311	-64.3934	287.4299	80.9088	772.6751	-0.0592	0.0182	-0.0073	-0.0462	0.0165	0.9585
1.05	-2.2445	-6.3422	-0.31633	2.0882	-0.58297	-4.6563	-38.3741	769.7153	-63.8288	286.3638	78.7367	768.3086	-0.0592	0.0182	-0.0073	-0.0462	0.0165	0.9585
1.0621	-1.3528	-5.503	-0.38335	1.8063	-0.20333	-4.017	-34.9779	764.5649	-62.5576	283.6395	75.6881	759.1452	-0.0592	0.0182	-0.0073	-0.0462	0.0165	0.9585
1.0743	-0.64753	-3.9583	-0.37496	1.2841	0.04824	-2.7769	-31.2029	756.1337	-60.8159	279.8059	72.0429	746.6683	-0.0592	0.0182	-0.0073	-0.0462	0.0165	0.9585
1.0864	-0.14932	-2.2425	-0.33002	0.7046	0.19641	-1.3665	-27.2469	746.2556	-58.8306	275.5459	68.113	732.7434	-0.0592	0.0182	-0.0073	-0.0462	0.0165	0.9585
1.0986	0.17804	-0.68865	-0.26571	0.17977	0.26551	-0.078237	-23.3007	736.9482	-56.7913	271.6	64.1719	719.3942	-0.0592	0.0182	-0.0073	-0.0462	0.0165	0.9585
1.1107	0.35889	0.57726	-0.20182	-0.24654	0.28129	0.98025	-19.5899	730.0534	-54.8606	268.6361	60.4677	708.4676	-0.0592	0.0182	-0.0073	-0.0462	0.0165	0.9585
1.1229	0.4516	1.5009	-0.13904	-0.55768	0.26177	1.7401	-16.3316	726.9298	-53.1843	267.1356	57.2247	701.3257	-0.0592	0.0182	-0.0073	-0.0462	0.0165	0.9585
1.135	0.47843	2.1154	-0.094238	-0.76368	0.22968	2.2442	-13.6985	728.2768	-51.8726	267.3264	54.6109	698.6619	-0.0592	0.0182	-0.0073	-0.0462	0.0165	0.9585
1.1471	0.491	2.4784	-0.058257	-0.88586	0.19223	2.529	-11.8326	734.0113	-50.987	269.1494	52.7258	700.4018	-0.0592	0.0182	-0.0073	-0.0462	0.0165	0.9585
1.1593	0.47665	2.6655	-0.037256	-0.95126	0.15485	2.6738	-10.7491	743.3436	-50.535	272.2887	51.5748	705.7764	-0.0592	0.0182	-0.0073	-0.0462	0.0165	0.9585
